<?xml version="1.0" standalone="no"?>
<!DOCTYPE svg PUBLIC "-//W3C//DTD SVG 20010904//EN"
 "http://www.w3.org/TR/2001/REC-SVG-20010904/DTD/svg10.dtd">
<svg version="1.0" xmlns="http://www.w3.org/2000/svg"
 width="78.000000pt" height="38.000000pt" viewBox="0 0 78.000000 38.000000"
 preserveAspectRatio="xMidYMid meet">
<metadata>
Created by potrace 1.16, written by Peter Selinger 2001-2019
</metadata>
<g transform="translate(0.000000,38.000000) scale(0.100000,-0.100000)"
fill="#000000" stroke="none">
<path d="M0 195 l0 -185 390 0 390 0 0 185 0 185 -390 0 -390 0 0 -185z m211
99 c9 -11 10 -20 2 -32 -7 -12 -6 -23 3 -38 12 -17 11 -23 -2 -42 -12 -18 -25
-22 -65 -22 l-49 0 0 75 0 75 49 0 c32 0 53 -5 62 -16z m379 -4 c30 -30 27
-83 -6 -109 -49 -39 -108 -17 -120 44 -13 68 77 114 126 65z"/>
</g>
</svg>
