<?xml version="1.0" encoding="utf-8"?>
<!-- Generator: Adobe Illustrator 16.0.0, SVG Export Plug-In . SVG Version: 6.00 Build 0)  -->
<!DOCTYPE svg PUBLIC "-//W3C//DTD SVG 1.1//EN" "http://www.w3.org/Graphics/SVG/1.1/DTD/svg11.dtd">
<svg version="1.1" id="Capa_1" xmlns="http://www.w3.org/2000/svg" xmlns:xlink="http://www.w3.org/1999/xlink" x="0px" y="0px"
	 width="52.125px" height="36.625px" viewBox="0 0 52.125 36.625" enable-background="new 0 0 52.125 36.625" xml:space="preserve">
<g>
	<path fill="#FFFFFF" d="M1.709,6.288C2.204,5.708,2.875,5.26,3.458,5.26h0.858v3.386H9.51v1.532c0,0.773-0.694,1.773-2.219,1.773
		H4.316v5.865c0,1.943,0.86,2.691,2.364,2.691c1.188,0,2.107-0.168,2.689-0.522h0.14v1.332c0,1.524-1.107,2.497-3.273,2.497
		c-3.779,0-5.611-2.051-5.611-5.552V9.26C0.625,7.79,0.902,7.234,1.709,6.288 M14.046,7.596c1.193,0,2.192-1.001,2.192-2.197
		c0-1.193-0.999-2.167-2.192-2.167c-1.197,0-2.164,0.974-2.164,2.167C11.882,6.595,12.849,7.596,14.046,7.596 M16.683,23.785
		c1.587,0,2.224-0.636,2.224-2.25v-0.799h-0.695c-1.638,0-2.278-0.479-2.278-1.971v-7.002c0-1.892-0.996-2.779-2.665-2.779h-1.052
		V19.12C12.216,22.148,13.792,23.785,16.683,23.785 M46.096,16.43c0-3.002-1.118-4.781-3.562-4.781
		c-2.131,0-3.213,1.778-3.213,4.252c0,2.971,1.082,4.743,3.551,4.743C45.036,20.645,46.096,18.873,46.096,16.43 M35.454,16.43
		c0-4.503,2.588-8.111,7.418-8.111c4.502,0,7.082,3.608,7.082,7.583c0,4.498-2.58,8.076-7.42,8.076
		C38.042,23.978,35.454,20.399,35.454,16.43 M36.181,6.719h0.078c1.209-1.71,3.574-3.153,6.822-3.153
		c2.986,0,5.027,1.429,6.461,3.17h0.074V5.158c0-0.484-0.241-1.278-0.574-1.723c-1.148-1.526-3.502-2.81-6.266-2.81
		c-2.791,0-5.309,1.627-6.098,2.908C36.397,4,36.181,4.674,36.181,5.102V6.719z M44.22,26.672h-0.111
		c-1.82,2.838-5.395,5.248-10.293,5.248c-4.504,0-7.579-2.382-9.744-5.283H23.96v1.882c0,0.802,0.364,2.12,0.863,2.868
		c1.73,2.541,5.283,4.674,9.445,4.674c4.221,0,8.02-2.707,9.202-4.834c0.433-0.775,0.749-1.906,0.749-2.613V26.672z M31.897,16.39
		h-1.977l0.076,0.343c0,0.008,0.227,0.989,0.227,2.118v1.203c0,0.591-0.125,1.132-1.631,1.132c-2.18,0-4.771-0.86-4.771-4.972
		c0-2.622,2.018-4.52,4.792-4.52c1.76,0,3.432,0.464,4.366,1.205l0.075,0.063h0.502v-1.307c0-1.554-1.436-3.227-4.566-3.227
		c-5.307,0-9.013,3.375-9.013,8.201c0,5.137,4.149,7.824,8.243,7.824c3.763,0,5.589-1.309,5.589-4.012v-2.399
		C33.81,17.193,32.881,16.39,31.897,16.39"/>
</g>
</svg>
